G04 #@! TF.GenerationSoftware,KiCad,Pcbnew,8.0.3-8.0.3-0~ubuntu20.04.1*
G04 #@! TF.CreationDate,2024-08-18T22:02:51-04:00*
G04 #@! TF.ProjectId,syringe_pump,73797269-6e67-4655-9f70-756d702e6b69,rev?*
G04 #@! TF.SameCoordinates,Original*
G04 #@! TF.FileFunction,Soldermask,Top*
G04 #@! TF.FilePolarity,Negative*
%FSLAX46Y46*%
G04 Gerber Fmt 4.6, Leading zero omitted, Abs format (unit mm)*
G04 Created by KiCad (PCBNEW 8.0.3-8.0.3-0~ubuntu20.04.1) date 2024-08-18 22:02:51*
%MOMM*%
%LPD*%
G01*
G04 APERTURE LIST*
G04 Aperture macros list*
%AMRoundRect*
0 Rectangle with rounded corners*
0 $1 Rounding radius*
0 $2 $3 $4 $5 $6 $7 $8 $9 X,Y pos of 4 corners*
0 Add a 4 corners polygon primitive as box body*
4,1,4,$2,$3,$4,$5,$6,$7,$8,$9,$2,$3,0*
0 Add four circle primitives for the rounded corners*
1,1,$1+$1,$2,$3*
1,1,$1+$1,$4,$5*
1,1,$1+$1,$6,$7*
1,1,$1+$1,$8,$9*
0 Add four rect primitives between the rounded corners*
20,1,$1+$1,$2,$3,$4,$5,0*
20,1,$1+$1,$4,$5,$6,$7,0*
20,1,$1+$1,$6,$7,$8,$9,0*
20,1,$1+$1,$8,$9,$2,$3,0*%
G04 Aperture macros list end*
%ADD10RoundRect,0.250000X-0.900000X1.500000X-0.900000X-1.500000X0.900000X-1.500000X0.900000X1.500000X0*%
%ADD11RoundRect,0.200000X0.200000X0.275000X-0.200000X0.275000X-0.200000X-0.275000X0.200000X-0.275000X0*%
%ADD12RoundRect,0.250000X-0.250000X-0.475000X0.250000X-0.475000X0.250000X0.475000X-0.250000X0.475000X0*%
%ADD13RoundRect,0.225000X0.225000X0.250000X-0.225000X0.250000X-0.225000X-0.250000X0.225000X-0.250000X0*%
%ADD14RoundRect,0.250000X0.650000X-1.000000X0.650000X1.000000X-0.650000X1.000000X-0.650000X-1.000000X0*%
%ADD15RoundRect,0.200000X0.275000X-0.200000X0.275000X0.200000X-0.275000X0.200000X-0.275000X-0.200000X0*%
%ADD16R,1.500000X0.900000*%
%ADD17R,0.900000X1.500000*%
%ADD18R,4.200000X4.200000*%
%ADD19RoundRect,0.225000X-0.225000X-0.250000X0.225000X-0.250000X0.225000X0.250000X-0.225000X0.250000X0*%
%ADD20RoundRect,0.250000X0.250000X0.475000X-0.250000X0.475000X-0.250000X-0.475000X0.250000X-0.475000X0*%
%ADD21C,1.800000*%
%ADD22RoundRect,0.100000X0.100000X-0.650000X0.100000X0.650000X-0.100000X0.650000X-0.100000X-0.650000X0*%
%ADD23RoundRect,0.250000X-0.300000X2.050000X-0.300000X-2.050000X0.300000X-2.050000X0.300000X2.050000X0*%
%ADD24RoundRect,0.250002X-5.149998X4.449998X-5.149998X-4.449998X5.149998X-4.449998X5.149998X4.449998X0*%
%ADD25RoundRect,0.218750X-0.218750X-0.256250X0.218750X-0.256250X0.218750X0.256250X-0.218750X0.256250X0*%
%ADD26R,1.700000X1.700000*%
%ADD27O,1.700000X1.700000*%
%ADD28RoundRect,0.150000X-0.512500X-0.150000X0.512500X-0.150000X0.512500X0.150000X-0.512500X0.150000X0*%
%ADD29RoundRect,0.250000X-1.950000X-1.000000X1.950000X-1.000000X1.950000X1.000000X-1.950000X1.000000X0*%
%ADD30O,4.000000X2.000000*%
%ADD31RoundRect,0.200000X-0.275000X0.200000X-0.275000X-0.200000X0.275000X-0.200000X0.275000X0.200000X0*%
%ADD32R,1.350000X0.400000*%
%ADD33O,1.550000X0.890000*%
%ADD34R,1.550000X1.200000*%
%ADD35O,0.950000X1.250000*%
%ADD36R,1.550000X1.500000*%
%ADD37R,1.250000X0.900000*%
%ADD38RoundRect,0.200000X-0.200000X-0.275000X0.200000X-0.275000X0.200000X0.275000X-0.200000X0.275000X0*%
%ADD39RoundRect,0.150000X0.150000X-0.825000X0.150000X0.825000X-0.150000X0.825000X-0.150000X-0.825000X0*%
%ADD40R,2.900000X5.400000*%
%ADD41RoundRect,0.150000X0.875000X0.150000X-0.875000X0.150000X-0.875000X-0.150000X0.875000X-0.150000X0*%
%ADD42RoundRect,0.150000X-0.587500X-0.150000X0.587500X-0.150000X0.587500X0.150000X-0.587500X0.150000X0*%
%ADD43RoundRect,0.225000X0.250000X-0.225000X0.250000X0.225000X-0.250000X0.225000X-0.250000X-0.225000X0*%
%ADD44RoundRect,0.250000X-0.625000X0.375000X-0.625000X-0.375000X0.625000X-0.375000X0.625000X0.375000X0*%
%ADD45RoundRect,0.150000X0.150000X-0.875000X0.150000X0.875000X-0.150000X0.875000X-0.150000X-0.875000X0*%
%ADD46RoundRect,0.250000X0.625000X-0.375000X0.625000X0.375000X-0.625000X0.375000X-0.625000X-0.375000X0*%
%ADD47R,2.400000X2.400000*%
%ADD48C,2.400000*%
%ADD49O,2.000000X1.600000*%
G04 APERTURE END LIST*
D10*
X76350000Y-142200000D03*
X76350000Y-147600000D03*
D11*
X56325000Y-98000000D03*
X54675000Y-98000000D03*
D12*
X57500000Y-129500000D03*
X59400000Y-129500000D03*
D13*
X97150000Y-106405000D03*
X95600000Y-106405000D03*
D14*
X68100000Y-127500000D03*
X68100000Y-123500000D03*
D11*
X108775000Y-77950000D03*
X107125000Y-77950000D03*
D15*
X102490000Y-108650000D03*
X102490000Y-107000000D03*
D11*
X108150000Y-101905000D03*
X106500000Y-101905000D03*
D13*
X60550000Y-79750000D03*
X59000000Y-79750000D03*
D16*
X105045000Y-148350000D03*
X105045000Y-147080000D03*
X105045000Y-145810000D03*
X105045000Y-144540000D03*
X105045000Y-143270000D03*
X105045000Y-142000000D03*
X105045000Y-140730000D03*
X105045000Y-139460000D03*
X105045000Y-138190000D03*
X105045000Y-136920000D03*
X105045000Y-135650000D03*
X105045000Y-134380000D03*
X105045000Y-133110000D03*
X105045000Y-131840000D03*
D17*
X102005000Y-130590000D03*
X100735000Y-130590000D03*
X99465000Y-130590000D03*
X98195000Y-130590000D03*
X96925000Y-130590000D03*
X95655000Y-130590000D03*
X94385000Y-130590000D03*
X93115000Y-130590000D03*
X91845000Y-130590000D03*
X90575000Y-130590000D03*
D16*
X87545000Y-131840000D03*
X87545000Y-133110000D03*
X87545000Y-134380000D03*
X87545000Y-135650000D03*
X87545000Y-136920000D03*
X87545000Y-138190000D03*
X87545000Y-139460000D03*
X87545000Y-140730000D03*
X87545000Y-142000000D03*
X87545000Y-143270000D03*
X87545000Y-144540000D03*
X87545000Y-145810000D03*
X87545000Y-147080000D03*
X87545000Y-148350000D03*
D18*
X96975000Y-141010000D03*
D11*
X110825000Y-138500000D03*
X109175000Y-138500000D03*
D19*
X109225000Y-137000000D03*
X110775000Y-137000000D03*
D12*
X78550000Y-128937500D03*
X80450000Y-128937500D03*
D20*
X76700000Y-81400000D03*
X74800000Y-81400000D03*
D21*
X58225000Y-74750000D03*
X58225000Y-72250000D03*
D22*
X98600000Y-126880000D03*
X99250000Y-126880000D03*
X99900000Y-126880000D03*
X99900000Y-124220000D03*
X99250000Y-124220000D03*
X98600000Y-124220000D03*
D23*
X70900000Y-135350000D03*
X69200000Y-135350000D03*
X67500000Y-135350000D03*
D24*
X67500000Y-144500000D03*
D23*
X65800000Y-135350000D03*
X64100000Y-135350000D03*
D12*
X57550000Y-131500000D03*
X59450000Y-131500000D03*
D25*
X51212500Y-95000000D03*
X52787500Y-95000000D03*
D15*
X104050000Y-108625000D03*
X104050000Y-106975000D03*
D11*
X76650000Y-137000000D03*
X75000000Y-137000000D03*
D26*
X107525000Y-91725000D03*
D27*
X104985000Y-91725000D03*
X102445000Y-91725000D03*
X99905000Y-91725000D03*
X97365000Y-91725000D03*
X94825000Y-91725000D03*
X92285000Y-91725000D03*
X89745000Y-91725000D03*
D28*
X78362500Y-124987500D03*
X78362500Y-125937500D03*
X78362500Y-126887500D03*
X80637500Y-126887500D03*
X80637500Y-124987500D03*
D29*
X53100000Y-123700000D03*
X60500000Y-123700000D03*
D19*
X109450000Y-142500000D03*
X111000000Y-142500000D03*
D11*
X108150000Y-104905000D03*
X106500000Y-104905000D03*
D30*
X54000000Y-140450000D03*
X54000000Y-135450000D03*
D11*
X56325000Y-95000000D03*
X54675000Y-95000000D03*
D31*
X97000000Y-123875000D03*
X97000000Y-125525000D03*
D32*
X110800000Y-119300000D03*
X110800000Y-118650000D03*
X110800000Y-118000000D03*
X110800000Y-117350000D03*
X110800000Y-116700000D03*
D33*
X113500000Y-121500000D03*
D34*
X113500000Y-120900000D03*
D35*
X110800000Y-120500000D03*
D36*
X113500000Y-119000000D03*
X113500000Y-117000000D03*
D35*
X110800000Y-115500000D03*
D34*
X113500000Y-115100000D03*
D33*
X113500000Y-114500000D03*
D20*
X93150000Y-81350000D03*
X91250000Y-81350000D03*
D11*
X108150000Y-103405000D03*
X106500000Y-103405000D03*
D37*
X113475000Y-130000000D03*
X109625000Y-130000000D03*
X113475000Y-131500000D03*
X109625000Y-131500000D03*
D31*
X73850000Y-90900000D03*
X73850000Y-92550000D03*
D38*
X70737500Y-123650000D03*
X72387500Y-123650000D03*
D39*
X94055000Y-117975000D03*
X95325000Y-117975000D03*
X96595000Y-117975000D03*
X97865000Y-117975000D03*
X99135000Y-117975000D03*
X100405000Y-117975000D03*
X101675000Y-117975000D03*
X102945000Y-117975000D03*
X102945000Y-113025000D03*
X101675000Y-113025000D03*
X100405000Y-113025000D03*
X99135000Y-113025000D03*
X97865000Y-113025000D03*
X96595000Y-113025000D03*
X95325000Y-113025000D03*
X94055000Y-113025000D03*
D31*
X72350000Y-90900000D03*
X72350000Y-92550000D03*
D11*
X111575000Y-133400000D03*
X109925000Y-133400000D03*
D40*
X65550000Y-115000000D03*
X75450000Y-115000000D03*
D13*
X76325000Y-79600000D03*
X74775000Y-79600000D03*
D20*
X109050000Y-82900000D03*
X107150000Y-82900000D03*
D11*
X60600000Y-78200000D03*
X58950000Y-78200000D03*
D41*
X104150000Y-104445000D03*
X104150000Y-103175000D03*
X104150000Y-101905000D03*
X104150000Y-100635000D03*
X104150000Y-99365000D03*
X104150000Y-98095000D03*
X104150000Y-96825000D03*
X104150000Y-95555000D03*
X94850000Y-95555000D03*
X94850000Y-96825000D03*
X94850000Y-98095000D03*
X94850000Y-99365000D03*
X94850000Y-100635000D03*
X94850000Y-101905000D03*
X94850000Y-103175000D03*
X94850000Y-104445000D03*
D31*
X75350000Y-90900000D03*
X75350000Y-92550000D03*
D15*
X79850000Y-92550000D03*
X79850000Y-90900000D03*
D38*
X75000000Y-138500000D03*
X76650000Y-138500000D03*
D42*
X71062500Y-125650000D03*
X71062500Y-127550000D03*
X72937500Y-126600000D03*
D11*
X84150000Y-104750000D03*
X82500000Y-104750000D03*
D21*
X107000000Y-74750000D03*
X107000000Y-72250000D03*
D43*
X92000000Y-114000000D03*
X92000000Y-112450000D03*
D44*
X106550000Y-119700000D03*
X106550000Y-122500000D03*
D43*
X60250000Y-98125000D03*
X60250000Y-96575000D03*
D29*
X53100000Y-114700000D03*
X60500000Y-114700000D03*
D12*
X109050000Y-140500000D03*
X110950000Y-140500000D03*
D20*
X77000000Y-135000000D03*
X75100000Y-135000000D03*
D15*
X76850000Y-92525000D03*
X76850000Y-90875000D03*
D21*
X74700000Y-74750000D03*
X74700000Y-72250000D03*
D26*
X88175000Y-107920000D03*
D27*
X88175000Y-105380000D03*
X88175000Y-102840000D03*
X88175000Y-100300000D03*
D31*
X101500000Y-124625000D03*
X101500000Y-126275000D03*
D25*
X51212500Y-98000000D03*
X52787500Y-98000000D03*
D13*
X92825000Y-79600000D03*
X91275000Y-79600000D03*
D37*
X113375000Y-126450000D03*
X109525000Y-126450000D03*
X113375000Y-127950000D03*
X109525000Y-127950000D03*
D20*
X80450000Y-122937500D03*
X78550000Y-122937500D03*
D19*
X109975000Y-134900000D03*
X111525000Y-134900000D03*
D15*
X78350000Y-92525000D03*
X78350000Y-90875000D03*
D11*
X84075000Y-101450000D03*
X82425000Y-101450000D03*
D20*
X60900000Y-81600000D03*
X59000000Y-81600000D03*
D26*
X53000000Y-105025000D03*
D27*
X53000000Y-107565000D03*
D21*
X91000000Y-74750000D03*
X91000000Y-72250000D03*
D45*
X62245000Y-105150000D03*
X63515000Y-105150000D03*
X64785000Y-105150000D03*
X66055000Y-105150000D03*
X67325000Y-105150000D03*
X68595000Y-105150000D03*
X69865000Y-105150000D03*
X71135000Y-105150000D03*
X72405000Y-105150000D03*
X73675000Y-105150000D03*
X74945000Y-105150000D03*
X76215000Y-105150000D03*
X77485000Y-105150000D03*
X78755000Y-105150000D03*
X78755000Y-95850000D03*
X77485000Y-95850000D03*
X76215000Y-95850000D03*
X74945000Y-95850000D03*
X73675000Y-95850000D03*
X72405000Y-95850000D03*
X71135000Y-95850000D03*
X69865000Y-95850000D03*
X68595000Y-95850000D03*
X67325000Y-95850000D03*
X66055000Y-95850000D03*
X64785000Y-95850000D03*
X63515000Y-95850000D03*
X62245000Y-95850000D03*
D46*
X54000000Y-131950000D03*
X54000000Y-129150000D03*
D13*
X108825000Y-79500000D03*
X107275000Y-79500000D03*
D11*
X92875000Y-78050000D03*
X91225000Y-78050000D03*
D25*
X51212500Y-101000000D03*
X52787500Y-101000000D03*
D11*
X76375000Y-78050000D03*
X74725000Y-78050000D03*
X56325000Y-101000000D03*
X54675000Y-101000000D03*
D47*
X69433333Y-57500000D03*
D48*
X72933333Y-57500000D03*
X76433333Y-57500000D03*
X79933333Y-57500000D03*
D49*
X68100000Y-80890000D03*
X68100000Y-78350000D03*
X68100000Y-75810000D03*
X68100000Y-73270000D03*
X68100000Y-70730000D03*
X68100000Y-68190000D03*
X68100000Y-65650000D03*
X68100000Y-63110000D03*
X80800000Y-63110000D03*
X80800000Y-65650000D03*
X80800000Y-68190000D03*
X80800000Y-70730000D03*
X80800000Y-73270000D03*
X80800000Y-75810000D03*
X80800000Y-78350000D03*
X80800000Y-80890000D03*
D47*
X53400000Y-57500000D03*
D48*
X56900000Y-57500000D03*
X60400000Y-57500000D03*
X63900000Y-57500000D03*
D47*
X101500000Y-57500000D03*
D48*
X105000000Y-57500000D03*
X108500000Y-57500000D03*
X112000000Y-57500000D03*
D49*
X84200000Y-80890000D03*
X84200000Y-78350000D03*
X84200000Y-75810000D03*
X84200000Y-73270000D03*
X84200000Y-70730000D03*
X84200000Y-68190000D03*
X84200000Y-65650000D03*
X84200000Y-63110000D03*
X96900000Y-63110000D03*
X96900000Y-65650000D03*
X96900000Y-68190000D03*
X96900000Y-70730000D03*
X96900000Y-73270000D03*
X96900000Y-75810000D03*
X96900000Y-78350000D03*
X96900000Y-80890000D03*
D47*
X85466666Y-57500000D03*
D48*
X88966666Y-57500000D03*
X92466666Y-57500000D03*
X95966666Y-57500000D03*
D49*
X52000000Y-80890000D03*
X52000000Y-78350000D03*
X52000000Y-75810000D03*
X52000000Y-73270000D03*
X52000000Y-70730000D03*
X52000000Y-68190000D03*
X52000000Y-65650000D03*
X52000000Y-63110000D03*
X64700000Y-63110000D03*
X64700000Y-65650000D03*
X64700000Y-68190000D03*
X64700000Y-70730000D03*
X64700000Y-73270000D03*
X64700000Y-75810000D03*
X64700000Y-78350000D03*
X64700000Y-80890000D03*
X100300000Y-80890000D03*
X100300000Y-78350000D03*
X100300000Y-75810000D03*
X100300000Y-73270000D03*
X100300000Y-70730000D03*
X100300000Y-68190000D03*
X100300000Y-65650000D03*
X100300000Y-63110000D03*
X113000000Y-63110000D03*
X113000000Y-65650000D03*
X113000000Y-68190000D03*
X113000000Y-70730000D03*
X113000000Y-73270000D03*
X113000000Y-75810000D03*
X113000000Y-78350000D03*
X113000000Y-80890000D03*
M02*
