M48
; DRILL file {KiCad 9.0.2-9.0.2-0~ubuntu24.04.1} date 2025-10-24T09:25:28-0400
; FORMAT={-:-/ absolute / metric / decimal}
; #@! TF.CreationDate,2025-10-24T09:25:28-04:00
; #@! TF.GenerationSoftware,Kicad,Pcbnew,9.0.2-9.0.2-0~ubuntu24.04.1
; #@! TF.FileFunction,Plated,1,2,PTH
FMAT,2
METRIC
; #@! TA.AperFunction,Plated,PTH,ViaDrill
T1C0.300
; #@! TA.AperFunction,Plated,PTH,ViaDrill
T2C0.400
; #@! TA.AperFunction,Plated,PTH,ComponentDrill
T3C0.800
; #@! TA.AperFunction,Plated,PTH,ComponentDrill
T4C1.000
; #@! TA.AperFunction,Plated,PTH,ComponentDrill
T5C1.200
%
G90
G05
T1
X50.8Y-60.55
X50.825Y-132.45
X50.95Y-54.73
X50.975Y-133.275
X51.025Y-88.975
X52.025Y-105.7
X52.175Y-120.875
X52.175Y-137.1
X52.6Y-83.45
X53.125Y-114.6
X53.275Y-72.0
X53.925Y-79.3
X54.55Y-126.0
X56.55Y-63.75
X56.75Y-114.425
X57.15Y-90.075
X57.2Y-98.625
X57.925Y-88.325
X58.619Y-89.894
X58.625Y-109.475
X59.325Y-128.55
X59.55Y-82.8
X60.5Y-76.85
X60.8Y-74.45
X61.35Y-110.325
X61.45Y-87.2
X62.35Y-89.675
X62.4Y-79.2
X62.625Y-115.55
X62.675Y-77.95
X62.675Y-83.025
X63.75Y-85.25
X64.375Y-90.8
X64.5Y-94.75
X64.575Y-100.25
X66.04Y-51.67
X66.15Y-62.25
X66.46Y-54.61
X66.65Y-57.25
X67.575Y-106.85
X67.6Y-88.25
X68.05Y-89.55
X69.825Y-71.95
X70.0Y-108.5
X70.4Y-110.525
X70.5Y-106.5
X70.575Y-95.925
X71.75Y-63.95
X71.75Y-130.75
X72.0Y-127.0
X72.225Y-75.25
X72.7Y-89.275
X72.9Y-69.1
X73.0Y-82.65
X74.0Y-106.5
X74.05Y-110.45
X74.15Y-87.475
X74.475Y-100.05
X74.75Y-82.6
X75.45Y-96.25
X75.525Y-103.3
X76.45Y-76.6
X77.996Y-108.902
X78.45Y-79.25
X78.925Y-77.725
X79.2Y-62.8
X79.4Y-87.425
X79.5Y-109.5
X81.4Y-109.375
X82.575Y-107.15
X82.66Y-55.35
X82.7Y-59.55
X83.504Y-88.379
X83.7Y-102.575
X83.7Y-104.95
X84.619Y-87.994
X84.75Y-100.95
X85.9Y-72.025
X87.3Y-134.55
X87.9Y-97.7
X87.95Y-64.25
X88.627Y-89.275
X88.65Y-69.1
X89.075Y-75.325
X89.2Y-104.175
X89.6Y-80.5
X89.7Y-82.7
X89.725Y-89.25
X90.45Y-76.8
X91.075Y-134.85
X91.543Y-97.835
X91.65Y-136.775
X92.45Y-82.9
X92.713Y-95.125
X92.95Y-74.0
X93.75Y-75.9
X93.94Y-54.92
X93.963Y-104.195
X94.05Y-140.45
X94.55Y-79.15
X94.75Y-78.0
X94.925Y-86.475
X95.35Y-62.8
X95.95Y-109.55
X96.05Y-143.713
X96.375Y-138.75
X98.1Y-135.475
X98.375Y-142.25
X98.602Y-51.545
X98.675Y-145.475
X98.7Y-59.55
X98.75Y-82.75
X100.0Y-142.0
X100.063Y-97.255
X100.5Y-104.365
X101.127Y-106.278
X101.5Y-141.0
X101.627Y-107.5
X102.025Y-137.7
X102.125Y-72.15
X102.127Y-109.0
X102.25Y-88.9
X103.125Y-101.2
X103.275Y-142.25
X103.35Y-116.775
X103.413Y-96.865
X103.69Y-55.1
X103.85Y-64.5
X104.7Y-69.05
X104.7Y-75.05
X104.7Y-80.9
X105.35Y-78.85
X105.513Y-99.975
X108.75Y-76.1
X108.9Y-92.875
X108.925Y-137.725
X109.725Y-104.575
X109.854Y-101.854
X110.45Y-77.35
X110.5Y-103.0
X110.68Y-54.55
X110.8Y-79.25
X112.0Y-142.975
X112.05Y-83.6
X112.275Y-90.6
X112.8Y-61.45
X113.0Y-141.0
X113.575Y-144.3
X113.81Y-60.66
T2
X61.0Y-126.0
X63.7Y-136.025
X66.625Y-108.5
X67.25Y-133.25
X69.0Y-133.25
T3
X51.42Y-93.0
X51.423Y-118.396
X53.96Y-93.0
X53.963Y-118.396
X56.5Y-93.0
X56.5Y-118.4
X59.04Y-93.0
X59.04Y-118.4
X61.58Y-93.0
X61.58Y-118.4
X64.12Y-93.0
X64.12Y-118.4
X66.66Y-93.0
X66.66Y-118.4
X69.2Y-93.0
X69.2Y-118.4
X71.74Y-93.0
X71.74Y-118.4
X74.28Y-93.0
X74.28Y-118.4
X76.82Y-93.0
X76.82Y-118.4
X79.36Y-93.0
X79.36Y-118.4
X81.9Y-93.0
X81.9Y-118.4
X84.44Y-93.0
X84.44Y-118.4
X86.98Y-93.0
X86.98Y-118.4
X89.52Y-93.0
X89.52Y-118.4
X92.06Y-93.0
X92.06Y-118.4
X94.6Y-93.0
X94.6Y-118.4
X97.14Y-93.0
X97.14Y-118.4
T4
X52.0Y-63.11
X52.0Y-65.65
X52.0Y-68.19
X52.0Y-70.73
X52.0Y-73.27
X52.0Y-75.81
X52.0Y-78.35
X52.0Y-80.89
X58.225Y-72.25
X58.225Y-74.75
X64.7Y-63.11
X64.7Y-65.65
X64.7Y-68.19
X64.7Y-70.73
X64.7Y-73.27
X64.7Y-75.81
X64.7Y-78.35
X64.7Y-80.89
X68.1Y-63.11
X68.1Y-65.65
X68.1Y-68.19
X68.1Y-70.73
X68.1Y-73.27
X68.1Y-75.81
X68.1Y-78.35
X68.1Y-80.89
X74.7Y-72.25
X74.7Y-74.75
X80.8Y-63.11
X80.8Y-65.65
X80.8Y-68.19
X80.8Y-70.73
X80.8Y-73.27
X80.8Y-75.81
X80.8Y-78.35
X80.8Y-80.89
X84.2Y-63.11
X84.2Y-65.65
X84.2Y-68.19
X84.2Y-70.73
X84.2Y-73.27
X84.2Y-75.81
X84.2Y-78.35
X84.2Y-80.89
X91.0Y-72.25
X91.0Y-74.75
X92.0Y-133.0
X92.46Y-148.0
X94.54Y-133.0
X95.0Y-126.5
X95.0Y-148.0
X96.9Y-63.11
X96.9Y-65.65
X96.9Y-68.19
X96.9Y-70.73
X96.9Y-73.27
X96.9Y-75.81
X96.9Y-78.35
X96.9Y-80.89
X97.08Y-133.0
X97.54Y-126.5
X99.62Y-133.0
X100.08Y-126.5
X100.3Y-63.11
X100.3Y-65.65
X100.3Y-68.19
X100.3Y-70.73
X100.3Y-73.27
X100.3Y-75.81
X100.3Y-78.35
X100.3Y-80.89
X102.16Y-133.0
X102.62Y-126.5
X104.7Y-133.0
X107.0Y-72.25
X107.0Y-74.75
X107.24Y-133.0
X109.78Y-133.0
X113.0Y-63.11
X113.0Y-65.65
X113.0Y-68.19
X113.0Y-70.73
X113.0Y-73.27
X113.0Y-75.81
X113.0Y-78.35
X113.0Y-80.89
T5
X53.4Y-57.5
X54.15Y-123.5
X54.15Y-128.5
X56.9Y-57.5
X60.4Y-57.5
X63.9Y-57.5
X69.433Y-57.5
X72.933Y-57.5
X76.433Y-57.5
X79.933Y-57.5
X85.467Y-57.5
X88.967Y-57.5
X92.467Y-57.5
X95.967Y-57.5
X101.5Y-57.5
X105.0Y-57.5
X108.5Y-57.5
X112.0Y-57.5
T4
X58.0Y-102.457G85X58.0Y-104.457
G05
X60.0Y-98.757G85X62.0Y-98.757
G05
X64.0Y-102.457G85X64.0Y-104.457
G05
M30
