G04 #@! TF.GenerationSoftware,KiCad,Pcbnew,8.0.3-8.0.3-0~ubuntu20.04.1*
G04 #@! TF.CreationDate,2024-10-12T18:08:44-03:00*
G04 #@! TF.ProjectId,syringe_pump,73797269-6e67-4655-9f70-756d702e6b69,rev?*
G04 #@! TF.SameCoordinates,Original*
G04 #@! TF.FileFunction,Soldermask,Top*
G04 #@! TF.FilePolarity,Negative*
%FSLAX46Y46*%
G04 Gerber Fmt 4.6, Leading zero omitted, Abs format (unit mm)*
G04 Created by KiCad (PCBNEW 8.0.3-8.0.3-0~ubuntu20.04.1) date 2024-10-12 18:08:44*
%MOMM*%
%LPD*%
G01*
G04 APERTURE LIST*
G04 Aperture macros list*
%AMRoundRect*
0 Rectangle with rounded corners*
0 $1 Rounding radius*
0 $2 $3 $4 $5 $6 $7 $8 $9 X,Y pos of 4 corners*
0 Add a 4 corners polygon primitive as box body*
4,1,4,$2,$3,$4,$5,$6,$7,$8,$9,$2,$3,0*
0 Add four circle primitives for the rounded corners*
1,1,$1+$1,$2,$3*
1,1,$1+$1,$4,$5*
1,1,$1+$1,$6,$7*
1,1,$1+$1,$8,$9*
0 Add four rect primitives between the rounded corners*
20,1,$1+$1,$2,$3,$4,$5,0*
20,1,$1+$1,$4,$5,$6,$7,0*
20,1,$1+$1,$6,$7,$8,$9,0*
20,1,$1+$1,$8,$9,$2,$3,0*%
G04 Aperture macros list end*
%ADD10RoundRect,0.200000X-0.275000X0.200000X-0.275000X-0.200000X0.275000X-0.200000X0.275000X0.200000X0*%
%ADD11RoundRect,0.200000X0.200000X0.275000X-0.200000X0.275000X-0.200000X-0.275000X0.200000X-0.275000X0*%
%ADD12RoundRect,0.250000X-0.250000X-0.475000X0.250000X-0.475000X0.250000X0.475000X-0.250000X0.475000X0*%
%ADD13RoundRect,0.225000X-0.250000X0.225000X-0.250000X-0.225000X0.250000X-0.225000X0.250000X0.225000X0*%
%ADD14RoundRect,0.200000X0.275000X-0.200000X0.275000X0.200000X-0.275000X0.200000X-0.275000X-0.200000X0*%
%ADD15RoundRect,0.225000X0.225000X0.250000X-0.225000X0.250000X-0.225000X-0.250000X0.225000X-0.250000X0*%
%ADD16RoundRect,0.250000X0.250000X0.475000X-0.250000X0.475000X-0.250000X-0.475000X0.250000X-0.475000X0*%
%ADD17C,1.800000*%
%ADD18RoundRect,0.250000X-0.300000X2.050000X-0.300000X-2.050000X0.300000X-2.050000X0.300000X2.050000X0*%
%ADD19RoundRect,0.250002X-5.149998X4.449998X-5.149998X-4.449998X5.149998X-4.449998X5.149998X4.449998X0*%
%ADD20RoundRect,0.218750X-0.218750X-0.256250X0.218750X-0.256250X0.218750X0.256250X-0.218750X0.256250X0*%
%ADD21R,1.700000X1.700000*%
%ADD22O,1.700000X1.700000*%
%ADD23RoundRect,0.150000X-0.512500X-0.150000X0.512500X-0.150000X0.512500X0.150000X-0.512500X0.150000X0*%
%ADD24RoundRect,0.250000X-1.950000X-1.000000X1.950000X-1.000000X1.950000X1.000000X-1.950000X1.000000X0*%
%ADD25O,4.000000X2.000000*%
%ADD26R,2.900000X5.400000*%
%ADD27RoundRect,0.150000X0.875000X0.150000X-0.875000X0.150000X-0.875000X-0.150000X0.875000X-0.150000X0*%
%ADD28RoundRect,0.200000X-0.200000X-0.275000X0.200000X-0.275000X0.200000X0.275000X-0.200000X0.275000X0*%
%ADD29RoundRect,0.250000X-0.900000X1.500000X-0.900000X-1.500000X0.900000X-1.500000X0.900000X1.500000X0*%
%ADD30RoundRect,0.250000X0.625000X-0.375000X0.625000X0.375000X-0.625000X0.375000X-0.625000X-0.375000X0*%
%ADD31R,2.000000X1.200000*%
%ADD32O,2.000000X1.200000*%
%ADD33R,2.400000X2.400000*%
%ADD34C,2.400000*%
%ADD35O,2.000000X1.600000*%
%ADD36RoundRect,0.100000X0.100000X-0.637500X0.100000X0.637500X-0.100000X0.637500X-0.100000X-0.637500X0*%
G04 APERTURE END LIST*
D10*
X69050000Y-102075000D03*
X69050000Y-103725000D03*
X64300000Y-102075000D03*
X64300000Y-103725000D03*
X62750000Y-102075000D03*
X62750000Y-103725000D03*
X61250000Y-102075000D03*
X61250000Y-103725000D03*
D11*
X56325000Y-98000000D03*
X54675000Y-98000000D03*
D12*
X57500000Y-129500000D03*
X59400000Y-129500000D03*
D13*
X94990000Y-109045000D03*
X94990000Y-110595000D03*
D11*
X108775000Y-77950000D03*
X107125000Y-77950000D03*
D14*
X92220000Y-110715000D03*
X92220000Y-109065000D03*
D11*
X105802948Y-104310000D03*
X104152948Y-104310000D03*
D15*
X60550000Y-79750000D03*
X59000000Y-79750000D03*
D12*
X78550000Y-128937500D03*
X80450000Y-128937500D03*
D16*
X76700000Y-81400000D03*
X74800000Y-81400000D03*
D17*
X58225000Y-74750000D03*
X58225000Y-72250000D03*
D18*
X70900000Y-135350000D03*
X69200000Y-135350000D03*
X67500000Y-135350000D03*
D19*
X67500000Y-144500000D03*
D18*
X65800000Y-135350000D03*
X64100000Y-135350000D03*
D12*
X57550000Y-131500000D03*
X59450000Y-131500000D03*
D14*
X90610000Y-110675000D03*
X90610000Y-109025000D03*
D20*
X51262500Y-95030000D03*
X52837500Y-95030000D03*
D11*
X76650000Y-137000000D03*
X75000000Y-137000000D03*
D21*
X106375000Y-91705000D03*
D22*
X103835000Y-91705000D03*
X101295000Y-91705000D03*
X98755000Y-91705000D03*
X96215000Y-91705000D03*
X93675000Y-91705000D03*
X91135000Y-91705000D03*
X88595000Y-91705000D03*
D23*
X78362500Y-124987500D03*
X78362500Y-125937500D03*
X78362500Y-126887500D03*
X80637500Y-126887500D03*
X80637500Y-124987500D03*
D24*
X53100000Y-123700000D03*
X60500000Y-123700000D03*
D11*
X105802948Y-107310000D03*
X104152948Y-107310000D03*
D25*
X54000000Y-140450000D03*
X54000000Y-135450000D03*
D16*
X93150000Y-81350000D03*
X91250000Y-81350000D03*
D11*
X105802948Y-105810000D03*
X104152948Y-105810000D03*
D26*
X65550000Y-115000000D03*
X75450000Y-115000000D03*
D15*
X76325000Y-79600000D03*
X74775000Y-79600000D03*
D16*
X109050000Y-82900000D03*
X107150000Y-82900000D03*
D11*
X60600000Y-78200000D03*
X58950000Y-78200000D03*
D27*
X101802948Y-106850000D03*
X101802948Y-105580000D03*
X101802948Y-104310000D03*
X101802948Y-103040000D03*
X101802948Y-101770000D03*
X101802948Y-100500000D03*
X101802948Y-99230000D03*
X101802948Y-97960000D03*
X92502948Y-97960000D03*
X92502948Y-99230000D03*
X92502948Y-100500000D03*
X92502948Y-101770000D03*
X92502948Y-103040000D03*
X92502948Y-104310000D03*
X92502948Y-105580000D03*
X92502948Y-106850000D03*
D28*
X75000000Y-138500000D03*
X76650000Y-138500000D03*
D29*
X76350000Y-142200000D03*
X76350000Y-147600000D03*
D10*
X65850000Y-102075000D03*
X65850000Y-103725000D03*
D17*
X107000000Y-74750000D03*
X107000000Y-72250000D03*
D11*
X56395000Y-94960000D03*
X54745000Y-94960000D03*
D15*
X58175000Y-92000000D03*
X56625000Y-92000000D03*
D24*
X53100000Y-114700000D03*
X60500000Y-114700000D03*
D16*
X77000000Y-135000000D03*
X75100000Y-135000000D03*
D17*
X74700000Y-74750000D03*
X74700000Y-72250000D03*
D21*
X104240000Y-87900000D03*
D22*
X101700000Y-87900000D03*
X99160000Y-87900000D03*
X96620000Y-87900000D03*
D20*
X51212500Y-98000000D03*
X52787500Y-98000000D03*
D15*
X92825000Y-79600000D03*
X91275000Y-79600000D03*
D16*
X80450000Y-122937500D03*
X78550000Y-122937500D03*
D10*
X67400000Y-102075000D03*
X67400000Y-103725000D03*
D16*
X60900000Y-81600000D03*
X59000000Y-81600000D03*
D21*
X53000000Y-105025000D03*
D22*
X53000000Y-107565000D03*
D17*
X91000000Y-74750000D03*
X91000000Y-72250000D03*
D30*
X54000000Y-131950000D03*
X54000000Y-129150000D03*
D15*
X108825000Y-79500000D03*
X107275000Y-79500000D03*
D11*
X92875000Y-78050000D03*
X91225000Y-78050000D03*
D20*
X51212500Y-101000000D03*
X52787500Y-101000000D03*
D11*
X76375000Y-78050000D03*
X74725000Y-78050000D03*
X56325000Y-101000000D03*
X54675000Y-101000000D03*
D31*
X112160000Y-142510000D03*
D32*
X112160000Y-139970000D03*
X112160000Y-137430000D03*
X112160000Y-134890000D03*
X112160000Y-132350000D03*
X112160000Y-129810000D03*
X112160000Y-127270000D03*
X112160000Y-124730000D03*
X112160000Y-122190000D03*
X112160000Y-119650000D03*
X112160000Y-117110000D03*
X112160000Y-114570000D03*
X112160000Y-112030000D03*
X112160000Y-109490000D03*
X112160000Y-106950000D03*
X112160000Y-104410000D03*
X112160000Y-101870000D03*
X112160000Y-99330000D03*
X112160000Y-96790000D03*
X86763680Y-96792720D03*
X86763680Y-99332720D03*
X86760000Y-101870000D03*
X86760000Y-104410000D03*
X86760000Y-106950000D03*
X86760000Y-109490000D03*
X86760000Y-112030000D03*
X86760000Y-114570000D03*
X86760000Y-117110000D03*
X86760000Y-119650000D03*
X86760000Y-122190000D03*
X86760000Y-124730000D03*
X86760000Y-127270000D03*
X86760000Y-129810000D03*
X86760000Y-132350000D03*
X86760000Y-134890000D03*
X86760000Y-137430000D03*
X86760000Y-139970000D03*
X86760000Y-142510000D03*
D33*
X69433333Y-57500000D03*
D34*
X72933333Y-57500000D03*
X76433333Y-57500000D03*
X79933333Y-57500000D03*
D35*
X68100000Y-80890000D03*
X68100000Y-78350000D03*
X68100000Y-75810000D03*
X68100000Y-73270000D03*
X68100000Y-70730000D03*
X68100000Y-68190000D03*
X68100000Y-65650000D03*
X68100000Y-63110000D03*
X80800000Y-63110000D03*
X80800000Y-65650000D03*
X80800000Y-68190000D03*
X80800000Y-70730000D03*
X80800000Y-73270000D03*
X80800000Y-75810000D03*
X80800000Y-78350000D03*
X80800000Y-80890000D03*
D33*
X53400000Y-57500000D03*
D34*
X56900000Y-57500000D03*
X60400000Y-57500000D03*
X63900000Y-57500000D03*
D33*
X101500000Y-57500000D03*
D34*
X105000000Y-57500000D03*
X108500000Y-57500000D03*
X112000000Y-57500000D03*
D35*
X84200000Y-80890000D03*
X84200000Y-78350000D03*
X84200000Y-75810000D03*
X84200000Y-73270000D03*
X84200000Y-70730000D03*
X84200000Y-68190000D03*
X84200000Y-65650000D03*
X84200000Y-63110000D03*
X96900000Y-63110000D03*
X96900000Y-65650000D03*
X96900000Y-68190000D03*
X96900000Y-70730000D03*
X96900000Y-73270000D03*
X96900000Y-75810000D03*
X96900000Y-78350000D03*
X96900000Y-80890000D03*
D33*
X85466666Y-57500000D03*
D34*
X88966666Y-57500000D03*
X92466666Y-57500000D03*
X95966666Y-57500000D03*
D35*
X52000000Y-80890000D03*
X52000000Y-78350000D03*
X52000000Y-75810000D03*
X52000000Y-73270000D03*
X52000000Y-70730000D03*
X52000000Y-68190000D03*
X52000000Y-65650000D03*
X52000000Y-63110000D03*
X64700000Y-63110000D03*
X64700000Y-65650000D03*
X64700000Y-68190000D03*
X64700000Y-70730000D03*
X64700000Y-73270000D03*
X64700000Y-75810000D03*
X64700000Y-78350000D03*
X64700000Y-80890000D03*
X100300000Y-80890000D03*
X100300000Y-78350000D03*
X100300000Y-75810000D03*
X100300000Y-73270000D03*
X100300000Y-70730000D03*
X100300000Y-68190000D03*
X100300000Y-65650000D03*
X100300000Y-63110000D03*
X113000000Y-63110000D03*
X113000000Y-65650000D03*
X113000000Y-68190000D03*
X113000000Y-70730000D03*
X113000000Y-73270000D03*
X113000000Y-75810000D03*
X113000000Y-78350000D03*
X113000000Y-80890000D03*
D36*
X60375000Y-99462500D03*
X61025000Y-99462500D03*
X61675000Y-99462500D03*
X62325000Y-99462500D03*
X62975000Y-99462500D03*
X63625000Y-99462500D03*
X64275000Y-99462500D03*
X64925000Y-99462500D03*
X65575000Y-99462500D03*
X66225000Y-99462500D03*
X66875000Y-99462500D03*
X67525000Y-99462500D03*
X67525000Y-93737500D03*
X66875000Y-93737500D03*
X66225000Y-93737500D03*
X65575000Y-93737500D03*
X64925000Y-93737500D03*
X64275000Y-93737500D03*
X63625000Y-93737500D03*
X62975000Y-93737500D03*
X62325000Y-93737500D03*
X61675000Y-93737500D03*
X61025000Y-93737500D03*
X60375000Y-93737500D03*
M02*
