G04 #@! TF.GenerationSoftware,KiCad,Pcbnew,9.0.2-9.0.2-0~ubuntu24.04.1*
G04 #@! TF.CreationDate,2025-10-24T09:24:47-04:00*
G04 #@! TF.ProjectId,syringe_pump,73797269-6e67-4655-9f70-756d702e6b69,rev?*
G04 #@! TF.SameCoordinates,Original*
G04 #@! TF.FileFunction,Soldermask,Bot*
G04 #@! TF.FilePolarity,Negative*
%FSLAX46Y46*%
G04 Gerber Fmt 4.6, Leading zero omitted, Abs format (unit mm)*
G04 Created by KiCad (PCBNEW 9.0.2-9.0.2-0~ubuntu24.04.1) date 2025-10-24 09:24:47*
%MOMM*%
%LPD*%
G01*
G04 APERTURE LIST*
G04 Aperture macros list*
%AMRoundRect*
0 Rectangle with rounded corners*
0 $1 Rounding radius*
0 $2 $3 $4 $5 $6 $7 $8 $9 X,Y pos of 4 corners*
0 Add a 4 corners polygon primitive as box body*
4,1,4,$2,$3,$4,$5,$6,$7,$8,$9,$2,$3,0*
0 Add four circle primitives for the rounded corners*
1,1,$1+$1,$2,$3*
1,1,$1+$1,$4,$5*
1,1,$1+$1,$6,$7*
1,1,$1+$1,$8,$9*
0 Add four rect primitives between the rounded corners*
20,1,$1+$1,$2,$3,$4,$5,0*
20,1,$1+$1,$4,$5,$6,$7,0*
20,1,$1+$1,$6,$7,$8,$9,0*
20,1,$1+$1,$8,$9,$2,$3,0*%
%AMFreePoly0*
4,1,23,0.550000,-0.750000,0.000000,-0.750000,0.000000,-0.745722,-0.065263,-0.745722,-0.191342,-0.711940,-0.304381,-0.646677,-0.396677,-0.554381,-0.461940,-0.441342,-0.495722,-0.315263,-0.495722,-0.250000,-0.500000,-0.250000,-0.500000,0.250000,-0.495722,0.250000,-0.495722,0.315263,-0.461940,0.441342,-0.396677,0.554381,-0.304381,0.646677,-0.191342,0.711940,-0.065263,0.745722,0.000000,0.745722,
0.000000,0.750000,0.550000,0.750000,0.550000,-0.750000,0.550000,-0.750000,$1*%
%AMFreePoly1*
4,1,23,0.000000,0.745722,0.065263,0.745722,0.191342,0.711940,0.304381,0.646677,0.396677,0.554381,0.461940,0.441342,0.495722,0.315263,0.495722,0.250000,0.500000,0.250000,0.500000,-0.250000,0.495722,-0.250000,0.495722,-0.315263,0.461940,-0.441342,0.396677,-0.554381,0.304381,-0.646677,0.191342,-0.711940,0.065263,-0.745722,0.000000,-0.745722,0.000000,-0.750000,-0.550000,-0.750000,
-0.550000,0.750000,0.000000,0.750000,0.000000,0.745722,0.000000,0.745722,$1*%
G04 Aperture macros list end*
%ADD10C,1.800000*%
%ADD11R,1.700000X1.700000*%
%ADD12O,1.700000X1.700000*%
%ADD13O,4.000000X2.000000*%
%ADD14R,1.200000X2.000000*%
%ADD15O,1.200000X2.000000*%
%ADD16R,2.400000X2.400000*%
%ADD17C,2.400000*%
%ADD18O,2.000000X1.600000*%
%ADD19FreePoly0,90.000000*%
%ADD20R,1.500000X1.000000*%
%ADD21FreePoly1,90.000000*%
%ADD22R,3.500000X3.500000*%
%ADD23RoundRect,0.750000X-0.750000X-1.000000X0.750000X-1.000000X0.750000X1.000000X-0.750000X1.000000X0*%
%ADD24RoundRect,0.875000X-0.875000X-0.875000X0.875000X-0.875000X0.875000X0.875000X-0.875000X0.875000X0*%
G04 APERTURE END LIST*
D10*
X58225000Y-74750000D03*
X58225000Y-72250000D03*
D11*
X92000000Y-133000000D03*
D12*
X94540000Y-133000000D03*
X97080000Y-133000000D03*
X99620000Y-133000000D03*
X102160000Y-133000000D03*
X104700000Y-133000000D03*
X107240000Y-133000000D03*
X109780000Y-133000000D03*
D10*
X107000000Y-74750000D03*
X107000000Y-72250000D03*
D13*
X54150000Y-128500000D03*
X54150000Y-123500000D03*
D10*
X74700000Y-74750000D03*
X74700000Y-72250000D03*
D11*
X95000000Y-126500000D03*
D12*
X97540000Y-126500000D03*
X100080000Y-126500000D03*
X102620000Y-126500000D03*
D11*
X95000000Y-148000000D03*
D12*
X92460000Y-148000000D03*
D10*
X91000000Y-74750000D03*
X91000000Y-72250000D03*
D14*
X97140000Y-93000000D03*
D15*
X94600000Y-93000000D03*
X92060000Y-93000000D03*
X89520000Y-93000000D03*
X86980000Y-93000000D03*
X84440000Y-93000000D03*
X81900000Y-93000000D03*
X79360000Y-93000000D03*
X76820000Y-93000000D03*
X74280000Y-93000000D03*
X71740000Y-93000000D03*
X69200000Y-93000000D03*
X66660000Y-93000000D03*
X64120000Y-93000000D03*
X61580000Y-93000000D03*
X59040000Y-93000000D03*
X56500000Y-93000000D03*
X53960000Y-93000000D03*
X51420000Y-93000000D03*
X51422720Y-118396320D03*
X53962720Y-118396320D03*
X56500000Y-118400000D03*
X59040000Y-118400000D03*
X61580000Y-118400000D03*
X64120000Y-118400000D03*
X66660000Y-118400000D03*
X69200000Y-118400000D03*
X71740000Y-118400000D03*
X74280000Y-118400000D03*
X76820000Y-118400000D03*
X79360000Y-118400000D03*
X81900000Y-118400000D03*
X84440000Y-118400000D03*
X86980000Y-118400000D03*
X89520000Y-118400000D03*
X92060000Y-118400000D03*
X94600000Y-118400000D03*
X97140000Y-118400000D03*
D16*
X69433333Y-57500000D03*
D17*
X72933333Y-57500000D03*
X76433333Y-57500000D03*
X79933333Y-57500000D03*
D18*
X68100000Y-80890000D03*
X68100000Y-78350000D03*
X68100000Y-75810000D03*
X68100000Y-73270000D03*
X68100000Y-70730000D03*
X68100000Y-68190000D03*
X68100000Y-65650000D03*
X68100000Y-63110000D03*
X80800000Y-63110000D03*
X80800000Y-65650000D03*
X80800000Y-68190000D03*
X80800000Y-70730000D03*
X80800000Y-73270000D03*
X80800000Y-75810000D03*
X80800000Y-78350000D03*
X80800000Y-80890000D03*
D16*
X53400000Y-57500000D03*
D17*
X56900000Y-57500000D03*
X60400000Y-57500000D03*
X63900000Y-57500000D03*
D16*
X101500000Y-57500000D03*
D17*
X105000000Y-57500000D03*
X108500000Y-57500000D03*
X112000000Y-57500000D03*
D19*
X87242500Y-73250000D03*
D20*
X87242500Y-71950000D03*
D21*
X87242500Y-70650000D03*
D18*
X84200000Y-80890000D03*
X84200000Y-78350000D03*
X84200000Y-75810000D03*
X84200000Y-73270000D03*
X84200000Y-70730000D03*
X84200000Y-68190000D03*
X84200000Y-65650000D03*
X84200000Y-63110000D03*
X96900000Y-63110000D03*
X96900000Y-65650000D03*
X96900000Y-68190000D03*
X96900000Y-70730000D03*
X96900000Y-73270000D03*
X96900000Y-75810000D03*
X96900000Y-78350000D03*
X96900000Y-80890000D03*
D22*
X64000000Y-103457500D03*
D23*
X58000000Y-103457500D03*
D24*
X61000000Y-98757500D03*
D19*
X104000000Y-73450000D03*
D20*
X104000000Y-72150000D03*
D21*
X104000000Y-70850000D03*
D16*
X85466666Y-57500000D03*
D17*
X88966666Y-57500000D03*
X92466666Y-57500000D03*
X95966666Y-57500000D03*
D18*
X52000000Y-80890000D03*
X52000000Y-78350000D03*
X52000000Y-75810000D03*
X52000000Y-73270000D03*
X52000000Y-70730000D03*
X52000000Y-68190000D03*
X52000000Y-65650000D03*
X52000000Y-63110000D03*
X64700000Y-63110000D03*
X64700000Y-65650000D03*
X64700000Y-68190000D03*
X64700000Y-70730000D03*
X64700000Y-73270000D03*
X64700000Y-75810000D03*
X64700000Y-78350000D03*
X64700000Y-80890000D03*
D19*
X54717500Y-73325000D03*
D20*
X54717500Y-72025000D03*
D21*
X54717500Y-70725000D03*
D19*
X71375000Y-73350000D03*
D20*
X71375000Y-72050000D03*
D21*
X71375000Y-70750000D03*
D18*
X100300000Y-80890000D03*
X100300000Y-78350000D03*
X100300000Y-75810000D03*
X100300000Y-73270000D03*
X100300000Y-70730000D03*
X100300000Y-68190000D03*
X100300000Y-65650000D03*
X100300000Y-63110000D03*
X113000000Y-63110000D03*
X113000000Y-65650000D03*
X113000000Y-68190000D03*
X113000000Y-70730000D03*
X113000000Y-73270000D03*
X113000000Y-75810000D03*
X113000000Y-78350000D03*
X113000000Y-80890000D03*
M02*
