M48
; DRILL file {KiCad 8.0.3-8.0.3-0~ubuntu20.04.1} date 2024-10-12T18:08:53-0300
; FORMAT={-:-/ absolute / metric / decimal}
; #@! TF.CreationDate,2024-10-12T18:08:53-03:00
; #@! TF.GenerationSoftware,Kicad,Pcbnew,8.0.3-8.0.3-0~ubuntu20.04.1
; #@! TF.FileFunction,Plated,1,2,PTH
FMAT,2
METRIC
; #@! TA.AperFunction,Plated,PTH,ViaDrill
T1C0.300
; #@! TA.AperFunction,Plated,PTH,ViaDrill
T2C0.400
; #@! TA.AperFunction,Plated,PTH,ComponentDrill
T3C0.800
; #@! TA.AperFunction,Plated,PTH,ComponentDrill
T4C1.000
; #@! TA.AperFunction,Plated,PTH,ComponentDrill
T5C1.200
%
G90
G05
T1
X50.8Y-60.55
X50.8Y-93.9
X50.85Y-99.1
X50.85Y-105.6
X50.85Y-111.6
X50.95Y-54.73
X51.1Y-102.1
X51.7Y-90.9
X52.6Y-83.45
X54.693Y-118.036
X54.8Y-97.025
X55.65Y-74.55
X55.96Y-148.74
X56.22Y-70.93
X56.55Y-63.75
X56.6Y-120.85
X56.75Y-138.05
X56.76Y-113.85
X56.98Y-96.0
X57.11Y-107.64
X57.2Y-93.62
X57.25Y-99.55
X57.7Y-101.4
X57.91Y-98.24
X59.3Y-95.4
X59.45Y-148.2
X59.55Y-82.8
X60.05Y-102.85
X60.1Y-112.15
X60.25Y-143.95
X60.5Y-76.85
X60.8Y-74.45
X61.1Y-97.9
X61.2Y-90.1
X61.32Y-137.94
X62.12Y-119.15
X62.4Y-79.2
X62.507Y-90.493
X62.61Y-126.8
X63.47Y-88.22
X63.55Y-104.85
X64.05Y-107.75
X64.65Y-138.7
X65.0Y-101.0
X66.04Y-51.67
X66.15Y-62.25
X66.46Y-54.61
X66.65Y-57.25
X66.775Y-107.075
X66.85Y-104.6
X67.1Y-111.55
X67.571Y-89.223
X68.372Y-88.422
X68.46Y-120.5
X68.76Y-124.58
X68.8Y-100.1
X69.1Y-112.99
X69.9Y-105.05
X70.4Y-101.4
X70.5Y-103.4
X70.77Y-130.09
X71.75Y-63.95
X72.3Y-74.4
X72.35Y-70.62
X72.35Y-103.95
X72.734Y-107.729
X72.95Y-135.9
X73.78Y-127.15
X73.85Y-97.5
X74.55Y-87.94
X74.65Y-105.9
X74.7Y-120.85
X74.75Y-82.6
X74.8Y-119.35
X75.14Y-110.79
X75.8Y-124.44
X76.45Y-76.6
X77.05Y-106.15
X78.2Y-121.7
X78.45Y-79.25
X78.74Y-114.82
X78.82Y-118.57
X78.85Y-133.1
X78.95Y-140.05
X79.2Y-62.8
X79.6Y-125.95
X80.3Y-110.75
X80.32Y-131.17
X80.85Y-104.81
X81.55Y-128.65
X81.85Y-133.95
X82.66Y-55.35
X82.7Y-59.55
X83.23Y-108.01
X83.31Y-88.35
X83.34Y-139.18
X83.9Y-103.95
X84.18Y-88.04
X85.18Y-98.06
X85.85Y-94.1
X87.95Y-64.25
X88.101Y-88.211
X88.6Y-73.7
X88.65Y-69.1
X88.65Y-148.86
X89.02Y-144.75
X89.093Y-87.993
X89.6Y-80.5
X89.7Y-82.7
X90.19Y-130.9
X90.4Y-125.43
X90.45Y-76.8
X90.6Y-116.69
X91.72Y-122.62
X92.45Y-82.9
X92.95Y-74.0
X93.75Y-75.9
X93.94Y-54.92
X94.55Y-79.15
X94.64Y-107.43
X94.7Y-106.15
X95.2Y-103.7
X95.3Y-77.25
X95.35Y-62.8
X95.56Y-127.37
X96.02Y-117.61
X96.74Y-110.54
X97.48Y-94.51
X97.5Y-101.95
X98.602Y-51.545
X98.68Y-124.07
X98.7Y-59.55
X98.75Y-82.75
X100.09Y-110.15
X100.34Y-89.9
X101.14Y-94.49
X102.67Y-128.12
X102.91Y-148.95
X103.37Y-118.45
X103.69Y-55.1
X103.85Y-64.5
X104.7Y-69.05
X104.7Y-75.05
X104.7Y-80.9
X105.35Y-78.85
X105.52Y-131.41
X106.19Y-103.21
X106.29Y-97.18
X106.55Y-94.37
X106.9Y-89.4
X107.44Y-112.28
X108.03Y-123.69
X108.18Y-120.98
X108.61Y-109.57
X108.75Y-76.1
X108.99Y-142.41
X109.24Y-102.24
X109.51Y-126.09
X109.56Y-134.63
X109.66Y-99.39
X110.45Y-77.35
X110.68Y-54.55
X110.8Y-79.25
X111.1Y-90.58
X112.05Y-83.6
X112.8Y-61.45
X112.86Y-93.71
X113.81Y-60.66
T2
X60.5Y-121.7
X60.8Y-132.5
X62.5Y-112.65
X71.15Y-132.45
X75.1Y-133.55
X79.05Y-149.05
T3
X86.76Y-101.87
X86.76Y-104.41
X86.76Y-106.95
X86.76Y-109.49
X86.76Y-112.03
X86.76Y-114.57
X86.76Y-117.11
X86.76Y-119.65
X86.76Y-122.19
X86.76Y-124.73
X86.76Y-127.27
X86.76Y-129.81
X86.76Y-132.35
X86.76Y-134.89
X86.76Y-137.43
X86.76Y-139.97
X86.76Y-142.51
X86.764Y-96.793
X86.764Y-99.333
X112.16Y-96.79
X112.16Y-99.33
X112.16Y-101.87
X112.16Y-104.41
X112.16Y-106.95
X112.16Y-109.49
X112.16Y-112.03
X112.16Y-114.57
X112.16Y-117.11
X112.16Y-119.65
X112.16Y-122.19
X112.16Y-124.73
X112.16Y-127.27
X112.16Y-129.81
X112.16Y-132.35
X112.16Y-134.89
X112.16Y-137.43
X112.16Y-139.97
X112.16Y-142.51
T4
X52.0Y-63.11
X52.0Y-65.65
X52.0Y-68.19
X52.0Y-70.73
X52.0Y-73.27
X52.0Y-75.81
X52.0Y-78.35
X52.0Y-80.89
X53.0Y-105.025
X53.0Y-107.565
X58.225Y-72.25
X58.225Y-74.75
X64.7Y-63.11
X64.7Y-65.65
X64.7Y-68.19
X64.7Y-70.73
X64.7Y-73.27
X64.7Y-75.81
X64.7Y-78.35
X64.7Y-80.89
X68.1Y-63.11
X68.1Y-65.65
X68.1Y-68.19
X68.1Y-70.73
X68.1Y-73.27
X68.1Y-75.81
X68.1Y-78.35
X68.1Y-80.89
X74.7Y-72.25
X74.7Y-74.75
X80.8Y-63.11
X80.8Y-65.65
X80.8Y-68.19
X80.8Y-70.73
X80.8Y-73.27
X80.8Y-75.81
X80.8Y-78.35
X80.8Y-80.89
X84.2Y-63.11
X84.2Y-65.65
X84.2Y-68.19
X84.2Y-70.73
X84.2Y-73.27
X84.2Y-75.81
X84.2Y-78.35
X84.2Y-80.89
X88.595Y-91.705
X91.0Y-72.25
X91.0Y-74.75
X91.135Y-91.705
X93.675Y-91.705
X96.215Y-91.705
X96.62Y-87.9
X96.9Y-63.11
X96.9Y-65.65
X96.9Y-68.19
X96.9Y-70.73
X96.9Y-73.27
X96.9Y-75.81
X96.9Y-78.35
X96.9Y-80.89
X98.755Y-91.705
X99.16Y-87.9
X100.3Y-63.11
X100.3Y-65.65
X100.3Y-68.19
X100.3Y-70.73
X100.3Y-73.27
X100.3Y-75.81
X100.3Y-78.35
X100.3Y-80.89
X101.295Y-91.705
X101.7Y-87.9
X103.835Y-91.705
X104.24Y-87.9
X106.375Y-91.705
X107.0Y-72.25
X107.0Y-74.75
X113.0Y-63.11
X113.0Y-65.65
X113.0Y-68.19
X113.0Y-70.73
X113.0Y-73.27
X113.0Y-75.81
X113.0Y-78.35
X113.0Y-80.89
T5
X53.4Y-57.5
X54.0Y-135.45
X54.0Y-140.45
X56.9Y-57.5
X60.4Y-57.5
X63.9Y-57.5
X69.433Y-57.5
X72.933Y-57.5
X76.433Y-57.5
X79.933Y-57.5
X85.467Y-57.5
X88.967Y-57.5
X92.467Y-57.5
X95.967Y-57.5
X101.5Y-57.5
X105.0Y-57.5
X108.5Y-57.5
X112.0Y-57.5
M30
