G04 #@! TF.GenerationSoftware,KiCad,Pcbnew,8.0.3-8.0.3-0~ubuntu20.04.1*
G04 #@! TF.CreationDate,2024-10-12T18:08:45-03:00*
G04 #@! TF.ProjectId,syringe_pump,73797269-6e67-4655-9f70-756d702e6b69,rev?*
G04 #@! TF.SameCoordinates,Original*
G04 #@! TF.FileFunction,Soldermask,Bot*
G04 #@! TF.FilePolarity,Negative*
%FSLAX46Y46*%
G04 Gerber Fmt 4.6, Leading zero omitted, Abs format (unit mm)*
G04 Created by KiCad (PCBNEW 8.0.3-8.0.3-0~ubuntu20.04.1) date 2024-10-12 18:08:45*
%MOMM*%
%LPD*%
G01*
G04 APERTURE LIST*
%ADD10C,1.800000*%
%ADD11R,1.700000X1.700000*%
%ADD12O,1.700000X1.700000*%
%ADD13O,4.000000X2.000000*%
%ADD14R,2.000000X1.200000*%
%ADD15O,2.000000X1.200000*%
%ADD16R,2.400000X2.400000*%
%ADD17C,2.400000*%
%ADD18O,2.000000X1.600000*%
G04 APERTURE END LIST*
D10*
X58225000Y-74750000D03*
X58225000Y-72250000D03*
D11*
X106375000Y-91705000D03*
D12*
X103835000Y-91705000D03*
X101295000Y-91705000D03*
X98755000Y-91705000D03*
X96215000Y-91705000D03*
X93675000Y-91705000D03*
X91135000Y-91705000D03*
X88595000Y-91705000D03*
D13*
X54000000Y-140450000D03*
X54000000Y-135450000D03*
D10*
X107000000Y-74750000D03*
X107000000Y-72250000D03*
X74700000Y-74750000D03*
X74700000Y-72250000D03*
D11*
X104240000Y-87900000D03*
D12*
X101700000Y-87900000D03*
X99160000Y-87900000D03*
X96620000Y-87900000D03*
D11*
X53000000Y-105025000D03*
D12*
X53000000Y-107565000D03*
D10*
X91000000Y-74750000D03*
X91000000Y-72250000D03*
D14*
X112160000Y-142510000D03*
D15*
X112160000Y-139970000D03*
X112160000Y-137430000D03*
X112160000Y-134890000D03*
X112160000Y-132350000D03*
X112160000Y-129810000D03*
X112160000Y-127270000D03*
X112160000Y-124730000D03*
X112160000Y-122190000D03*
X112160000Y-119650000D03*
X112160000Y-117110000D03*
X112160000Y-114570000D03*
X112160000Y-112030000D03*
X112160000Y-109490000D03*
X112160000Y-106950000D03*
X112160000Y-104410000D03*
X112160000Y-101870000D03*
X112160000Y-99330000D03*
X112160000Y-96790000D03*
X86763680Y-96792720D03*
X86763680Y-99332720D03*
X86760000Y-101870000D03*
X86760000Y-104410000D03*
X86760000Y-106950000D03*
X86760000Y-109490000D03*
X86760000Y-112030000D03*
X86760000Y-114570000D03*
X86760000Y-117110000D03*
X86760000Y-119650000D03*
X86760000Y-122190000D03*
X86760000Y-124730000D03*
X86760000Y-127270000D03*
X86760000Y-129810000D03*
X86760000Y-132350000D03*
X86760000Y-134890000D03*
X86760000Y-137430000D03*
X86760000Y-139970000D03*
X86760000Y-142510000D03*
D16*
X69433333Y-57500000D03*
D17*
X72933333Y-57500000D03*
X76433333Y-57500000D03*
X79933333Y-57500000D03*
D18*
X68100000Y-80890000D03*
X68100000Y-78350000D03*
X68100000Y-75810000D03*
X68100000Y-73270000D03*
X68100000Y-70730000D03*
X68100000Y-68190000D03*
X68100000Y-65650000D03*
X68100000Y-63110000D03*
X80800000Y-63110000D03*
X80800000Y-65650000D03*
X80800000Y-68190000D03*
X80800000Y-70730000D03*
X80800000Y-73270000D03*
X80800000Y-75810000D03*
X80800000Y-78350000D03*
X80800000Y-80890000D03*
D16*
X53400000Y-57500000D03*
D17*
X56900000Y-57500000D03*
X60400000Y-57500000D03*
X63900000Y-57500000D03*
D16*
X101500000Y-57500000D03*
D17*
X105000000Y-57500000D03*
X108500000Y-57500000D03*
X112000000Y-57500000D03*
D18*
X84200000Y-80890000D03*
X84200000Y-78350000D03*
X84200000Y-75810000D03*
X84200000Y-73270000D03*
X84200000Y-70730000D03*
X84200000Y-68190000D03*
X84200000Y-65650000D03*
X84200000Y-63110000D03*
X96900000Y-63110000D03*
X96900000Y-65650000D03*
X96900000Y-68190000D03*
X96900000Y-70730000D03*
X96900000Y-73270000D03*
X96900000Y-75810000D03*
X96900000Y-78350000D03*
X96900000Y-80890000D03*
D16*
X85466666Y-57500000D03*
D17*
X88966666Y-57500000D03*
X92466666Y-57500000D03*
X95966666Y-57500000D03*
D18*
X52000000Y-80890000D03*
X52000000Y-78350000D03*
X52000000Y-75810000D03*
X52000000Y-73270000D03*
X52000000Y-70730000D03*
X52000000Y-68190000D03*
X52000000Y-65650000D03*
X52000000Y-63110000D03*
X64700000Y-63110000D03*
X64700000Y-65650000D03*
X64700000Y-68190000D03*
X64700000Y-70730000D03*
X64700000Y-73270000D03*
X64700000Y-75810000D03*
X64700000Y-78350000D03*
X64700000Y-80890000D03*
X100300000Y-80890000D03*
X100300000Y-78350000D03*
X100300000Y-75810000D03*
X100300000Y-73270000D03*
X100300000Y-70730000D03*
X100300000Y-68190000D03*
X100300000Y-65650000D03*
X100300000Y-63110000D03*
X113000000Y-63110000D03*
X113000000Y-65650000D03*
X113000000Y-68190000D03*
X113000000Y-70730000D03*
X113000000Y-73270000D03*
X113000000Y-75810000D03*
X113000000Y-78350000D03*
X113000000Y-80890000D03*
M02*
