M48
; DRILL file {KiCad 8.0.3-8.0.3-0~ubuntu20.04.1} date 2024-08-18T22:02:56-0400
; FORMAT={-:-/ absolute / metric / decimal}
; #@! TF.CreationDate,2024-08-18T22:02:56-04:00
; #@! TF.GenerationSoftware,Kicad,Pcbnew,8.0.3-8.0.3-0~ubuntu20.04.1
; #@! TF.FileFunction,Plated,1,2,PTH
FMAT,2
METRIC
; #@! TA.AperFunction,Plated,PTH,ViaDrill
T1C0.300
; #@! TA.AperFunction,Plated,PTH,ViaDrill
T2C0.400
; #@! TA.AperFunction,Plated,PTH,ComponentDrill
T3C0.500
; #@! TA.AperFunction,Plated,PTH,ComponentDrill
T4C0.550
; #@! TA.AperFunction,Plated,PTH,ComponentDrill
T5C1.000
; #@! TA.AperFunction,Plated,PTH,ComponentDrill
T6C1.200
; #@! TA.AperFunction,Plated,PTH,ViaDrill
T7C3.200
%
G90
G05
T1
X50.8Y-60.55
X50.8Y-93.9
X50.85Y-99.1
X50.85Y-105.6
X50.85Y-111.6
X51.1Y-102.1
X51.7Y-90.9
X52.6Y-83.45
X54.693Y-118.036
X54.8Y-97.025
X55.65Y-74.55
X56.55Y-63.75
X56.6Y-120.85
X56.75Y-138.05
X57.25Y-99.55
X57.35Y-105.4
X59.0Y-92.9
X59.35Y-97.85
X59.45Y-148.2
X59.55Y-82.8
X59.6Y-101.95
X60.1Y-112.15
X60.2Y-94.05
X60.25Y-143.95
X60.5Y-76.85
X60.8Y-74.45
X60.8Y-107.35
X61.6Y-90.5
X62.4Y-79.2
X62.75Y-91.0
X64.45Y-88.6
X64.55Y-98.55
X64.65Y-138.7
X66.15Y-62.25
X66.55Y-91.25
X66.9Y-107.6
X68.5Y-116.45
X69.45Y-131.05
X69.9Y-112.3
X69.95Y-91.75
X70.35Y-92.85
X71.75Y-63.95
X72.15Y-106.9
X72.3Y-74.4
X72.405Y-97.4
X72.95Y-135.9
X73.1Y-89.7
X73.675Y-97.45
X74.2Y-86.65
X74.6Y-107.9
X74.7Y-120.85
X74.75Y-82.6
X76.45Y-76.6
X77.1Y-118.45
X78.2Y-121.7
X78.45Y-79.25
X78.85Y-133.1
X78.95Y-140.05
X79.15Y-86.85
X79.2Y-62.8
X79.6Y-125.95
X81.3Y-120.45
X81.5Y-148.75
X81.55Y-128.65
X82.7Y-59.55
X83.25Y-108.8
X83.785Y-87.685
X83.95Y-106.0
X84.807Y-87.807
X84.9Y-100.8
X85.4Y-98.6
X85.55Y-114.1
X85.85Y-94.1
X85.882Y-145.618
X86.05Y-133.5
X86.75Y-106.1
X87.95Y-64.25
X88.45Y-88.0
X88.6Y-73.7
X88.65Y-69.1
X89.05Y-138.15
X89.3Y-139.45
X89.35Y-116.8
X89.55Y-145.75
X89.6Y-80.5
X89.7Y-82.7
X90.0Y-124.3
X90.25Y-87.25
X90.25Y-94.55
X90.45Y-76.8
X90.9Y-97.55
X92.45Y-82.9
X92.5Y-106.95
X92.55Y-109.8
X92.6Y-123.25
X92.9Y-127.95
X92.95Y-74.0
X93.05Y-146.45
X93.15Y-141.65
X93.75Y-75.9
X93.75Y-87.95
X94.0Y-120.95
X94.55Y-79.15
X94.9Y-133.25
X95.3Y-77.25
X95.35Y-62.8
X95.4Y-124.65
X97.0Y-114.85
X97.05Y-89.15
X97.25Y-126.8
X97.85Y-110.85
X97.95Y-108.5
X98.0Y-115.05
X98.35Y-119.85
X98.4Y-134.55
X98.45Y-128.35
X98.7Y-59.55
X98.75Y-82.75
X99.6Y-121.2
X99.75Y-108.25
X100.3Y-122.75
X100.4Y-125.176
X100.4Y-146.45
X101.45Y-133.9
X101.8Y-109.7
X101.85Y-142.1
X102.35Y-139.25
X102.6Y-127.3
X102.8Y-137.9
X102.85Y-140.9
X103.1Y-120.95
X103.1Y-146.95
X103.3Y-144.9
X103.35Y-135.45
X103.45Y-136.65
X103.8Y-86.7
X103.85Y-64.5
X103.9Y-94.75
X103.95Y-129.9
X104.3Y-127.25
X104.65Y-110.9
X104.7Y-69.05
X104.7Y-75.05
X104.7Y-80.9
X105.15Y-117.75
X105.35Y-78.85
X106.3Y-89.0
X107.65Y-87.5
X108.1Y-96.55
X108.1Y-107.25
X108.5Y-115.5
X108.75Y-76.1
X108.95Y-122.7
X109.05Y-143.6
X109.25Y-101.1
X110.25Y-125.0
X110.45Y-77.35
X110.8Y-79.25
X110.85Y-130.0
X111.45Y-129.05
X111.7Y-97.7
X112.0Y-132.65
X112.05Y-83.6
X112.45Y-109.6
X112.8Y-61.45
X113.35Y-90.9
X113.35Y-125.35
X113.81Y-60.66
T2
X60.5Y-121.7
X60.8Y-132.5
X62.5Y-112.65
X65.8Y-126.7
X68.8Y-120.75
X71.15Y-132.45
X75.1Y-133.55
X75.8Y-124.45
X76.25Y-129.55
X76.85Y-131.55
X79.05Y-149.05
X106.35Y-123.9
X109.5Y-105.0
X110.0Y-103.0
T5
X52.0Y-63.11
X52.0Y-65.65
X52.0Y-68.19
X52.0Y-70.73
X52.0Y-73.27
X52.0Y-75.81
X52.0Y-78.35
X52.0Y-80.89
X53.0Y-105.025
X53.0Y-107.565
X58.225Y-72.25
X58.225Y-74.75
X64.7Y-63.11
X64.7Y-65.65
X64.7Y-68.19
X64.7Y-70.73
X64.7Y-73.27
X64.7Y-75.81
X64.7Y-78.35
X64.7Y-80.89
X68.1Y-63.11
X68.1Y-65.65
X68.1Y-68.19
X68.1Y-70.73
X68.1Y-73.27
X68.1Y-75.81
X68.1Y-78.35
X68.1Y-80.89
X74.7Y-72.25
X74.7Y-74.75
X80.8Y-63.11
X80.8Y-65.65
X80.8Y-68.19
X80.8Y-70.73
X80.8Y-73.27
X80.8Y-75.81
X80.8Y-78.35
X80.8Y-80.89
X84.2Y-63.11
X84.2Y-65.65
X84.2Y-68.19
X84.2Y-70.73
X84.2Y-73.27
X84.2Y-75.81
X84.2Y-78.35
X84.2Y-80.89
X88.175Y-100.3
X88.175Y-102.84
X88.175Y-105.38
X88.175Y-107.92
X89.745Y-91.725
X91.0Y-72.25
X91.0Y-74.75
X92.285Y-91.725
X94.825Y-91.725
X96.9Y-63.11
X96.9Y-65.65
X96.9Y-68.19
X96.9Y-70.73
X96.9Y-73.27
X96.9Y-75.81
X96.9Y-78.35
X96.9Y-80.89
X97.365Y-91.725
X99.905Y-91.725
X100.3Y-63.11
X100.3Y-65.65
X100.3Y-68.19
X100.3Y-70.73
X100.3Y-73.27
X100.3Y-75.81
X100.3Y-78.35
X100.3Y-80.89
X102.445Y-91.725
X104.985Y-91.725
X107.0Y-72.25
X107.0Y-74.75
X107.525Y-91.725
X113.0Y-63.11
X113.0Y-65.65
X113.0Y-68.19
X113.0Y-70.73
X113.0Y-73.27
X113.0Y-75.81
X113.0Y-78.35
X113.0Y-80.89
T6
X53.4Y-57.5
X54.0Y-135.45
X54.0Y-140.45
X56.9Y-57.5
X60.4Y-57.5
X63.9Y-57.5
X69.433Y-57.5
X72.933Y-57.5
X76.433Y-57.5
X79.933Y-57.5
X85.467Y-57.5
X88.967Y-57.5
X92.467Y-57.5
X95.967Y-57.5
X101.5Y-57.5
X105.0Y-57.5
X108.5Y-57.5
X112.0Y-57.5
T7
X53.0Y-87.0
X53.0Y-147.0
X112.0Y-87.0
X112.0Y-147.0
T3
X113.175Y-114.5G85X113.825Y-114.5
G05
X113.175Y-121.5G85X113.825Y-121.5
G05
T4
X110.8Y-115.65G85X110.8Y-115.35
G05
X110.8Y-120.65G85X110.8Y-120.35
G05
M30
