solid OpenSCAD_Model
  facet normal 0 0 -1
    outer loop
      vertex -11.5 0 0
      vertex 11.5 8 0
      vertex 11.5 0 0
    endloop
  endfacet
  facet normal -0 0 -1
    outer loop
      vertex 11.5 8 0
      vertex -11.5 0 0
      vertex -11.5 8 0
    endloop
  endfacet
  facet normal -0 0 1
    outer loop
      vertex 7.5 4 35.75
      vertex 11.5 0 35.75
      vertex 11.5 4 35.75
    endloop
  endfacet
  facet normal 0 0 1
    outer loop
      vertex 6 0 35.75
      vertex 7.5 4 35.75
      vertex 6 4 35.75
    endloop
  endfacet
  facet normal 0 0 1
    outer loop
      vertex 7.5 4 35.75
      vertex 6 0 35.75
      vertex 11.5 0 35.75
    endloop
  endfacet
  facet normal 1 -0 0
    outer loop
      vertex 11.5 7.92157 0.75
      vertex 11.5 8 0
      vertex 11.5 8 0.75
    endloop
  endfacet
  facet normal 1 0 0
    outer loop
      vertex 11.5 0 0
      vertex 11.5 7.92157 0.75
      vertex 11.5 4 35.75
    endloop
  endfacet
  facet normal 1 0 0
    outer loop
      vertex 11.5 0 0
      vertex 11.5 4 35.75
      vertex 11.5 0 35.75
    endloop
  endfacet
  facet normal 1 0 0
    outer loop
      vertex 11.5 7.92157 0.75
      vertex 11.5 0 0
      vertex 11.5 8 0
    endloop
  endfacet
  facet normal 0 0.993781 0.111348
    outer loop
      vertex 11.5 7.92157 0.75
      vertex 7.5 4 35.75
      vertex 11.5 4 35.75
    endloop
  endfacet
  facet normal 0 0.993781 0.111348
    outer loop
      vertex 7.5 4 35.75
      vertex 11.5 7.92157 0.75
      vertex 7.5 7.92157 0.75
    endloop
  endfacet
  facet normal 0 -1 0
    outer loop
      vertex -7.5 0 35
      vertex -6 0 35.75
      vertex -11.5 0 35.75
    endloop
  endfacet
  facet normal 0 -1 -0
    outer loop
      vertex -6 0 35.75
      vertex -7.5 0 35
      vertex 6 0 35.75
    endloop
  endfacet
  facet normal 0 -1 0
    outer loop
      vertex 7.5 0 35
      vertex 6 0 35.75
      vertex -7.5 0 35
    endloop
  endfacet
  facet normal 0 -1 0
    outer loop
      vertex -11.5 0 35.75
      vertex -7.5 0 0.75
      vertex -7.5 0 35
    endloop
  endfacet
  facet normal 0 -1 0
    outer loop
      vertex -11.5 0 0
      vertex -6 0 0.75
      vertex -7.5 0 0.75
    endloop
  endfacet
  facet normal 0 -1 -0
    outer loop
      vertex -6 0 0.75
      vertex -11.5 0 0
      vertex 6 0 0.75
    endloop
  endfacet
  facet normal 0 -1 0
    outer loop
      vertex 11.5 0 0
      vertex 6 0 0.75
      vertex -11.5 0 0
    endloop
  endfacet
  facet normal 0 -1 0
    outer loop
      vertex -11.5 0 0
      vertex -7.5 0 0.75
      vertex -11.5 0 35.75
    endloop
  endfacet
  facet normal 0 -1 0
    outer loop
      vertex -6 0 35.75
      vertex 6 0 40
      vertex -6 0 40
    endloop
  endfacet
  facet normal 0 -1 -0
    outer loop
      vertex 6 0 40
      vertex -6 0 35.75
      vertex 6 0 35.75
    endloop
  endfacet
  facet normal 0 -1 0
    outer loop
      vertex 6 0 35.75
      vertex 7.5 0 35
      vertex 11.5 0 35.75
    endloop
  endfacet
  facet normal 0 -1 0
    outer loop
      vertex 7.5 0 0.75
      vertex 11.5 0 35.75
      vertex 7.5 0 35
    endloop
  endfacet
  facet normal 0 -1 0
    outer loop
      vertex 7.5 0 0.75
      vertex 11.5 0 0
      vertex 11.5 0 35.75
    endloop
  endfacet
  facet normal 0 -1 0
    outer loop
      vertex 6 0 0.75
      vertex 11.5 0 0
      vertex 7.5 0 0.75
    endloop
  endfacet
  facet normal 0 -1 0
    outer loop
      vertex -6 0 0.75
      vertex 6 0 5
      vertex -6 0 5
    endloop
  endfacet
  facet normal 0 -1 -0
    outer loop
      vertex 6 0 5
      vertex -6 0 0.75
      vertex 6 0 0.75
    endloop
  endfacet
  facet normal 0 1 -0
    outer loop
      vertex 11.5 8 0
      vertex 6 8 0.75
      vertex 11.5 8 0.75
    endloop
  endfacet
  facet normal 0 1 0
    outer loop
      vertex 6 8 0.75
      vertex 11.5 8 0
      vertex -6 8 0.75
    endloop
  endfacet
  facet normal 0 1 0
    outer loop
      vertex -11.5 8 0
      vertex -6 8 0.75
      vertex 11.5 8 0
    endloop
  endfacet
  facet normal 0 1 0
    outer loop
      vertex -6 8 0.75
      vertex -11.5 8 0
      vertex -11.5 8 0.75
    endloop
  endfacet
  facet normal 0 1 -0
    outer loop
      vertex 6 8 0.75
      vertex -6 8 5
      vertex 6 8 5
    endloop
  endfacet
  facet normal 0 1 0
    outer loop
      vertex -6 8 5
      vertex 6 8 0.75
      vertex -6 8 0.75
    endloop
  endfacet
  facet normal -1 0 0
    outer loop
      vertex 7.5 1 11.9167
      vertex 7.5 3 23.0833
      vertex 7.5 3 11.9167
    endloop
  endfacet
  facet normal -1 -0 0
    outer loop
      vertex 7.5 3 23.0833
      vertex 7.5 1 11.9167
      vertex 7.5 1 23.0833
    endloop
  endfacet
  facet normal -1 0 0
    outer loop
      vertex 7.5 3 11.9167
      vertex 7.5 7.92157 0.75
      vertex 7.5 3 11.4167
    endloop
  endfacet
  facet normal -1 0 0
    outer loop
      vertex 7.5 0 0.75
      vertex 7.5 3 11.4167
      vertex 7.5 7.92157 0.75
    endloop
  endfacet
  facet normal -1 0 0
    outer loop
      vertex 7.5 0 0.75
      vertex 7.5 1 11.9167
      vertex 7.5 1 11.4167
    endloop
  endfacet
  facet normal -1 -0 0
    outer loop
      vertex 7.5 1 11.9167
      vertex 7.5 0 0.75
      vertex 7.5 1 23.0833
    endloop
  endfacet
  facet normal -1 0 0
    outer loop
      vertex 7.5 0 35
      vertex 7.5 1 23.0833
      vertex 7.5 0 0.75
    endloop
  endfacet
  facet normal -1 -0 0
    outer loop
      vertex 7.5 3 11.4167
      vertex 7.5 0 0.75
      vertex 7.5 1 11.4167
    endloop
  endfacet
  facet normal -1 0 0
    outer loop
      vertex 7.5 7.92157 0.75
      vertex 7.5 4 35
      vertex 7.5 4 35.75
    endloop
  endfacet
  facet normal -1 0 0
    outer loop
      vertex 7.5 3 23.0833
      vertex 7.5 7.92157 0.75
      vertex 7.5 3 11.9167
    endloop
  endfacet
  facet normal -1 0 0
    outer loop
      vertex 7.5 3 23.5833
      vertex 7.5 7.92157 0.75
      vertex 7.5 3 23.0833
    endloop
  endfacet
  facet normal -1 0 0
    outer loop
      vertex 7.5 7.92157 0.75
      vertex 7.5 3 23.5833
      vertex 7.5 4 35
    endloop
  endfacet
  facet normal -1 0 0
    outer loop
      vertex 7.5 1 23.5833
      vertex 7.5 4 35
      vertex 7.5 3 23.5833
    endloop
  endfacet
  facet normal -1 0 0
    outer loop
      vertex 7.5 1 23.5833
      vertex 7.5 0 35
      vertex 7.5 4 35
    endloop
  endfacet
  facet normal -1 0 0
    outer loop
      vertex 7.5 1 23.0833
      vertex 7.5 0 35
      vertex 7.5 1 23.5833
    endloop
  endfacet
  facet normal -1 0 0
    outer loop
      vertex -11.5 8 0
      vertex -11.5 7.92157 0.75
      vertex -11.5 8 0.75
    endloop
  endfacet
  facet normal -1 0 0
    outer loop
      vertex -11.5 0 0
      vertex -11.5 7.92157 0.75
      vertex -11.5 8 0
    endloop
  endfacet
  facet normal -1 -0 0
    outer loop
      vertex -11.5 7.92157 0.75
      vertex -11.5 0 0
      vertex -11.5 4 35.75
    endloop
  endfacet
  facet normal -1 -0 0
    outer loop
      vertex -11.5 4 35.75
      vertex -11.5 0 0
      vertex -11.5 0 35.75
    endloop
  endfacet
  facet normal -0 0 1
    outer loop
      vertex -7.5 4 35.75
      vertex -6 0 35.75
      vertex -6 4 35.75
    endloop
  endfacet
  facet normal 0 0 1
    outer loop
      vertex -11.5 0 35.75
      vertex -7.5 4 35.75
      vertex -11.5 4 35.75
    endloop
  endfacet
  facet normal 0 0 1
    outer loop
      vertex -7.5 4 35.75
      vertex -11.5 0 35.75
      vertex -6 0 35.75
    endloop
  endfacet
  facet normal 0 0.993781 0.111348
    outer loop
      vertex -7.5 7.92157 0.75
      vertex -11.5 4 35.75
      vertex -7.5 4 35.75
    endloop
  endfacet
  facet normal 0 0.993781 0.111348
    outer loop
      vertex -11.5 4 35.75
      vertex -7.5 7.92157 0.75
      vertex -11.5 7.92157 0.75
    endloop
  endfacet
  facet normal 1 -0 0
    outer loop
      vertex -7.5 1 23.0833
      vertex -7.5 3 11.9167
      vertex -7.5 3 23.0833
    endloop
  endfacet
  facet normal 1 0 0
    outer loop
      vertex -7.5 3 11.9167
      vertex -7.5 1 23.0833
      vertex -7.5 1 11.9167
    endloop
  endfacet
  facet normal 1 0 0
    outer loop
      vertex -7.5 4 35
      vertex -7.5 1 23.5833
      vertex -7.5 3 23.5833
    endloop
  endfacet
  facet normal 1 0 0
    outer loop
      vertex -7.5 0 35
      vertex -7.5 1 23.0833
      vertex -7.5 1 23.5833
    endloop
  endfacet
  facet normal 1 0 0
    outer loop
      vertex -7.5 1 23.0833
      vertex -7.5 0 35
      vertex -7.5 1 11.9167
    endloop
  endfacet
  facet normal 1 0 0
    outer loop
      vertex -7.5 0 0.75
      vertex -7.5 1 11.9167
      vertex -7.5 0 35
    endloop
  endfacet
  facet normal 1 -0 0
    outer loop
      vertex -7.5 0 35
      vertex -7.5 1 23.5833
      vertex -7.5 4 35
    endloop
  endfacet
  facet normal 1 -0 0
    outer loop
      vertex -7.5 4 35
      vertex -7.5 7.92157 0.75
      vertex -7.5 4 35.75
    endloop
  endfacet
  facet normal 1 -0 0
    outer loop
      vertex -7.5 3 23.5833
      vertex -7.5 7.92157 0.75
      vertex -7.5 4 35
    endloop
  endfacet
  facet normal 1 -0 0
    outer loop
      vertex -7.5 3 23.0833
      vertex -7.5 7.92157 0.75
      vertex -7.5 3 23.5833
    endloop
  endfacet
  facet normal 1 -0 0
    outer loop
      vertex -7.5 3 11.9167
      vertex -7.5 7.92157 0.75
      vertex -7.5 3 23.0833
    endloop
  endfacet
  facet normal 1 -0 0
    outer loop
      vertex -7.5 3 11.4167
      vertex -7.5 7.92157 0.75
      vertex -7.5 3 11.9167
    endloop
  endfacet
  facet normal 1 0 0
    outer loop
      vertex -7.5 0 0.75
      vertex -7.5 3 11.4167
      vertex -7.5 1 11.4167
    endloop
  endfacet
  facet normal 1 0 0
    outer loop
      vertex -7.5 3 11.4167
      vertex -7.5 0 0.75
      vertex -7.5 7.92157 0.75
    endloop
  endfacet
  facet normal 1 0 0
    outer loop
      vertex -7.5 1 11.9167
      vertex -7.5 0 0.75
      vertex -7.5 1 11.4167
    endloop
  endfacet
  facet normal 0 0 1
    outer loop
      vertex -6 8 0.75
      vertex -7.5 7.92157 0.75
      vertex -6 0 0.75
    endloop
  endfacet
  facet normal -0 0 1
    outer loop
      vertex -11.5 8 0.75
      vertex -7.5 7.92157 0.75
      vertex -6 8 0.75
    endloop
  endfacet
  facet normal 0 0 1
    outer loop
      vertex -7.5 7.92157 0.75
      vertex -11.5 8 0.75
      vertex -11.5 7.92157 0.75
    endloop
  endfacet
  facet normal 0 0 1
    outer loop
      vertex -6 0 0.75
      vertex -7.5 7.92157 0.75
      vertex -7.5 0 0.75
    endloop
  endfacet
  facet normal 0 0 1
    outer loop
      vertex 11.5 8 0.75
      vertex 7.5 7.92157 0.75
      vertex 11.5 7.92157 0.75
    endloop
  endfacet
  facet normal -0 0 1
    outer loop
      vertex 6 8 0.75
      vertex 7.5 7.92157 0.75
      vertex 11.5 8 0.75
    endloop
  endfacet
  facet normal 0 0 1
    outer loop
      vertex 6 0 0.75
      vertex 7.5 7.92157 0.75
      vertex 6 8 0.75
    endloop
  endfacet
  facet normal 0 0 1
    outer loop
      vertex 7.5 7.92157 0.75
      vertex 6 0 0.75
      vertex 7.5 0 0.75
    endloop
  endfacet
  facet normal 1 -0 0
    outer loop
      vertex 6 0 5
      vertex 6 8 0.75
      vertex 6 8 5
    endloop
  endfacet
  facet normal 1 0 0
    outer loop
      vertex 6 8 0.75
      vertex 6 0 5
      vertex 6 0 0.75
    endloop
  endfacet
  facet normal -1 0 0
    outer loop
      vertex -6 0 0.75
      vertex -6 8 5
      vertex -6 8 0.75
    endloop
  endfacet
  facet normal -1 -0 0
    outer loop
      vertex -6 8 5
      vertex -6 0 0.75
      vertex -6 0 5
    endloop
  endfacet
  facet normal -0 0 1
    outer loop
      vertex -6 8 5
      vertex 6 0 5
      vertex 6 8 5
    endloop
  endfacet
  facet normal 0 0 1
    outer loop
      vertex 6 0 5
      vertex -6 8 5
      vertex -6 0 5
    endloop
  endfacet
  facet normal 0 0 -1
    outer loop
      vertex -7.5 0 35
      vertex 7.5 4 35
      vertex 7.5 0 35
    endloop
  endfacet
  facet normal -0 0 -1
    outer loop
      vertex 7.5 4 35
      vertex -7.5 0 35
      vertex -7.5 4 35
    endloop
  endfacet
  facet normal 0 1 -0
    outer loop
      vertex 7.5 4 35
      vertex 6 4 35.75
      vertex 7.5 4 35.75
    endloop
  endfacet
  facet normal 0 1 0
    outer loop
      vertex 6 4 35.75
      vertex 7.5 4 35
      vertex -6 4 35.75
    endloop
  endfacet
  facet normal 0 1 0
    outer loop
      vertex -7.5 4 35
      vertex -6 4 35.75
      vertex 7.5 4 35
    endloop
  endfacet
  facet normal 0 1 0
    outer loop
      vertex -6 4 35.75
      vertex -7.5 4 35
      vertex -7.5 4 35.75
    endloop
  endfacet
  facet normal 0 1 -0
    outer loop
      vertex 6 4 35.75
      vertex -6 4 40
      vertex 6 4 40
    endloop
  endfacet
  facet normal 0 1 0
    outer loop
      vertex -6 4 40
      vertex 6 4 35.75
      vertex -6 4 35.75
    endloop
  endfacet
  facet normal -1 0 0
    outer loop
      vertex -6 0 35.75
      vertex -6 4 40
      vertex -6 4 35.75
    endloop
  endfacet
  facet normal -1 -0 0
    outer loop
      vertex -6 4 40
      vertex -6 0 35.75
      vertex -6 0 40
    endloop
  endfacet
  facet normal -0 0 1
    outer loop
      vertex -6 4 40
      vertex 6 0 40
      vertex 6 4 40
    endloop
  endfacet
  facet normal 0 0 1
    outer loop
      vertex 6 0 40
      vertex -6 4 40
      vertex -6 0 40
    endloop
  endfacet
  facet normal 1 -0 0
    outer loop
      vertex 6 0 40
      vertex 6 4 35.75
      vertex 6 4 40
    endloop
  endfacet
  facet normal 1 0 0
    outer loop
      vertex 6 4 35.75
      vertex 6 0 40
      vertex 6 0 35.75
    endloop
  endfacet
  facet normal -0 0 1
    outer loop
      vertex -7.5 3 11.9167
      vertex 7.5 1 11.9167
      vertex 7.5 3 11.9167
    endloop
  endfacet
  facet normal 0 0 1
    outer loop
      vertex 7.5 1 11.9167
      vertex -7.5 3 11.9167
      vertex -7.5 1 11.9167
    endloop
  endfacet
  facet normal 0 0 -1
    outer loop
      vertex -7.5 1 11.4167
      vertex 7.5 3 11.4167
      vertex 7.5 1 11.4167
    endloop
  endfacet
  facet normal -0 0 -1
    outer loop
      vertex 7.5 3 11.4167
      vertex -7.5 1 11.4167
      vertex -7.5 3 11.4167
    endloop
  endfacet
  facet normal 0 1 -0
    outer loop
      vertex 7.5 3 11.4167
      vertex -7.5 3 11.9167
      vertex 7.5 3 11.9167
    endloop
  endfacet
  facet normal 0 1 0
    outer loop
      vertex -7.5 3 11.9167
      vertex 7.5 3 11.4167
      vertex -7.5 3 11.4167
    endloop
  endfacet
  facet normal 0 -1 0
    outer loop
      vertex -7.5 1 11.4167
      vertex 7.5 1 11.9167
      vertex -7.5 1 11.9167
    endloop
  endfacet
  facet normal 0 -1 -0
    outer loop
      vertex 7.5 1 11.9167
      vertex -7.5 1 11.4167
      vertex 7.5 1 11.4167
    endloop
  endfacet
  facet normal -0 0 1
    outer loop
      vertex -7.5 3 23.5833
      vertex 7.5 1 23.5833
      vertex 7.5 3 23.5833
    endloop
  endfacet
  facet normal 0 0 1
    outer loop
      vertex 7.5 1 23.5833
      vertex -7.5 3 23.5833
      vertex -7.5 1 23.5833
    endloop
  endfacet
  facet normal 0 0 -1
    outer loop
      vertex -7.5 1 23.0833
      vertex 7.5 3 23.0833
      vertex 7.5 1 23.0833
    endloop
  endfacet
  facet normal -0 0 -1
    outer loop
      vertex 7.5 3 23.0833
      vertex -7.5 1 23.0833
      vertex -7.5 3 23.0833
    endloop
  endfacet
  facet normal 0 1 -0
    outer loop
      vertex 7.5 3 23.0833
      vertex -7.5 3 23.5833
      vertex 7.5 3 23.5833
    endloop
  endfacet
  facet normal 0 1 0
    outer loop
      vertex -7.5 3 23.5833
      vertex 7.5 3 23.0833
      vertex -7.5 3 23.0833
    endloop
  endfacet
  facet normal 0 -1 0
    outer loop
      vertex -7.5 1 23.0833
      vertex 7.5 1 23.5833
      vertex -7.5 1 23.5833
    endloop
  endfacet
  facet normal 0 -1 -0
    outer loop
      vertex 7.5 1 23.5833
      vertex -7.5 1 23.0833
      vertex 7.5 1 23.0833
    endloop
  endfacet
endsolid OpenSCAD_Model
